<?xml version="1.0" standalone="no"?>
<!DOCTYPE svg PUBLIC "-//W3C//DTD SVG 20010904//EN"
 "http://www.w3.org/TR/2001/REC-SVG-20010904/DTD/svg10.dtd">
<svg version="1.0" xmlns="http://www.w3.org/2000/svg"
 width="400.000000pt" height="400.000000pt" viewBox="0 0 400.000000 400.000000"
 preserveAspectRatio="xMidYMid meet">
<metadata>
Created by potrace 1.16, written by Peter Selinger 2001-2019
</metadata>
<g transform="translate(0.000000,400.000000) scale(0.100000,-0.100000)"
fill="#000000" stroke="none">
<path d="M0 2000 l0 -2000 2000 0 2000 0 0 2000 0 2000 -2000 0 -2000 0 0
-2000z m3090 520 c124 -36 226 -123 286 -245 33 -67 38 -88 42 -165 9 -193
-82 -345 -260 -436 -184 -94 -406 -59 -563 88 -142 132 -180 342 -94 517 85
172 284 282 479 264 25 -3 74 -13 110 -23z m-1017 0 c174 -54 308 -209 326
-378 14 -142 -24 -262 -117 -363 -28 -31 -71 -66 -95 -79 l-43 -23 -112 78
c-62 44 -112 83 -112 87 0 4 17 8 38 8 47 0 129 46 164 92 94 124 45 294 -104
358 -42 18 -65 21 -113 18 -147 -12 -247 -126 -231 -262 11 -97 31 -117 341
-337 157 -112 282 -206 278 -210 -5 -3 -53 -18 -108 -33 -109 -28 -153 -27
-218 6 -70 35 -377 260 -418 306 -118 132 -144 335 -63 495 55 110 151 192
272 234 89 30 222 32 315 3z m-1253 -307 c5 -255 6 -273 26 -300 29 -40 80
-63 140 -63 56 0 102 24 138 73 20 27 21 43 24 298 l3 269 114 0 115 0 1 -167
c4 -416 2 -427 -56 -519 -72 -113 -192 -177 -335 -178 -141 -2 -256 52 -334
154 -68 89 -70 101 -74 423 l-3 288 118 -3 118 -3 5 -272z"/>
<path d="M2845 2304 c-50 -18 -112 -77 -136 -129 -26 -56 -24 -129 5 -191 69
-149 286 -182 407 -62 48 49 63 86 63 158 0 102 -48 176 -144 219 -53 24 -136
26 -195 5z"/>
</g>
</svg>
